<?xml version="1.0" encoding="UTF-8"?>
<svg id="Layer_1" xmlns="http://www.w3.org/2000/svg" version="1.1" viewBox="0 0 800 800">
  <!-- Generator: Adobe Illustrator 30.0.0, SVG Export Plug-In . SVG Version: 2.1.1 Build 123)  -->
  <defs>
    <style>
      .st0 {
        fill: none;
        stroke: #0d2c4b;
        stroke-linecap: round;
        stroke-linejoin: round;
        stroke-width: 66.67px;
      }
    </style>
  </defs>
  <path class="st0" d="M266.67,600h66.67M500,500v93.33c0,37.34,0,56.01-7.27,70.27-6.39,12.54-16.59,22.74-29.13,29.13-14.26,7.27-32.93,7.27-70.27,7.27h-186.67c-37.34,0-56.01,0-70.27-7.27-12.54-6.39-22.74-16.59-29.13-29.13-7.27-14.26-7.27-32.93-7.27-70.27V206.67c0-37.34,0-56.01,7.27-70.27,6.39-12.54,16.59-22.74,29.13-29.13,14.26-7.27,32.93-7.27,70.27-7.27h93.33M433.33,235.01c32.03,6.53,61.43,22.34,84.55,45.45,23.11,23.11,38.92,52.52,45.45,84.55M433.33,365.01h.33M433.33,100c67.69,7.53,130.81,37.87,178.97,86.03,48.16,48.16,78.5,111.28,86.03,178.97"/>
</svg>