<?xml version="1.0" encoding="UTF-8"?>
<svg id="Layer_1" xmlns="http://www.w3.org/2000/svg" version="1.1" viewBox="0 0 800 800">
  <!-- Generator: Adobe Illustrator 30.0.0, SVG Export Plug-In . SVG Version: 2.1.1 Build 123)  -->
  <defs>
    <style>
      .st0 {
        fill: #fff;
      }
    </style>
  </defs>
  <path class="st0" d="M509.84,659.74h215.16c5.38,0,9.75-4.37,9.75-9.75,0-2.52-.89-4.8-2.58-6.61-19.99-18.28-37.2-38.83-51.42-61.38v6.42l-19.09-41.75c-17.47-38.21-26.52-79.04-26.91-121.35v-.32c0-91.04-22.61-168.26-65.39-223.31-36.12-46.49-86.25-76.37-141.13-84.14l-18.49-2.62V50.01c0-5.38-4.37-9.75-9.75-9.75s-9.75,4.37-9.75,9.75v64.91l-18.49,2.62c-54.88,7.78-105,37.67-141.11,84.15-42.78,55.06-65.4,132.28-65.4,223.3v.32c-.63,42.24-9.77,82.99-27.16,121.13-16.79,36.8-40.43,69.42-70.27,96.96-1.68,1.82-2.57,4.09-2.57,6.58,0,5.38,4.37,9.75,9.75,9.75h214.75l4.04,16.34c12.2,49.25,55.88,83.66,106.21,83.66s93.77-33.94,105.96-82.54l3.88-17.46ZM88.97,640.26l37.58-35.78c18.28-24.93,32.55-52.53,42.43-82.03,10.47-31.22,15.77-63.92,15.77-97.18v-.27c0-89.72,23.13-164.89,66.88-217.36,19.8-23.75,43.17-42.17,69.47-54.74,25.17-12.03,51.71-18.13,78.9-18.13h.28c57.4.76,110.99,26.86,147.02,71.6l.61.77c21.46,28.17,38.19,59.52,49.72,93.19,11.94,34.87,18,71.42,18,108.64,0,5.38-.14,10.94-.41,16.54v2.59c0,61.65,18.65,120.55,53.98,170.57l2.04,2.74,9.83,13.57-13.82,10.23v15.08l-578.27-.02ZM480.01,691.12c-15.6,30.18-46.21,49-79.89,49.13h-.17c-33.74-.12-64.29-18.81-79.76-48.76l-.57-1.19-14.02-30.55h190.61l-16.21,31.37Z"/>
  <path class="st0" d="M46.4,242.67l.13.05,75.07,27.88c1.06.4,2.22.6,3.39.6,5.41,0,9.78-4.37,9.78-9.75,0-4.01-2.51-7.67-6.24-9.1l-.09-.03-75.3-27.97c-.62-.24-1.77-.5-3.13-.5-5.38,0-9.75,4.37-9.75,9.75,0,3.98,2.47,7.61,6.15,9.07Z"/>
  <path class="st0" d="M759.74,233.58c0-1.14-.19-2.26-.57-3.33-1.53-3.97-5.04-6.42-9.17-6.42-1.16,0-2.31.21-3.41.61l-74.98,27.84c-3.84,1.46-6.36,5.06-6.36,9.15,0,5.38,4.37,9.75,9.75,9.75,1.19,0,2.31-.2,3.42-.61l74.98-27.84c3.82-1.45,6.33-5.05,6.33-9.15Z"/>
  <path class="st0" d="M590.23,124.99v.46c.24,5.16,4.52,9.29,9.74,9.29h.52c2.46-.11,4.67-1.09,6.43-2.84l75-75c1.86-1.86,2.85-4.25,2.85-6.9,0-5.39-4.38-9.78-9.77-9.78-2.65,0-5.04,1-6.93,2.88l-74.99,74.99c-1.87,1.86-2.85,4.25-2.85,6.9Z"/>
  <path class="st0" d="M209.68,124.92c0-2.6-1.01-5.04-2.85-6.9l-75.18-75.16c-1.78-1.64-4.1-2.54-6.58-2.54-5.38,0-9.75,4.37-9.75,9.75,0,2.6,1.01,5.04,2.85,6.9l74.86,74.85c1.86,1.85,4.31,2.85,6.9,2.85,5.38,0,9.75-4.37,9.75-9.75Z"/>
</svg>