<?xml version="1.0" encoding="UTF-8"?>
<svg id="Layer_1" xmlns="http://www.w3.org/2000/svg" version="1.1" viewBox="0 0 800 800">
  <!-- Generator: Adobe Illustrator 30.0.0, SVG Export Plug-In . SVG Version: 2.1.1 Build 123)  -->
  <defs>
    <style>
      .st0 {
        fill: #0d2c4b;
        fill-rule: evenodd;
        stroke: #0d2c4b;
        stroke-miterlimit: 133.33;
        stroke-width: 16.8px;
      }
    </style>
  </defs>
  <g id="SVGRepo_iconCarrier">
    <path class="st0" d="M400,91.67c-170.29,0-308.33,138.05-308.33,308.33s138.05,308.33,308.33,308.33,308.33-138.05,308.33-308.33S570.29,91.67,400,91.67ZM41.67,400c0-197.9,160.43-358.33,358.33-358.33s358.33,160.43,358.33,358.33-160.43,358.33-358.33,358.33S41.67,597.9,41.67,400ZM400,175c13.81,0,25,11.19,25,25v10.56c54.35,9.73,100,50.56,100,106.11,0,13.81-11.19,25-25,25s-25-11.19-25-25c0-28.14-29.12-58.33-75-58.33s-75,30.19-75,58.33,29.12,58.33,75,58.33c64.57,0,125,44.43,125,108.33,0,55.55-45.65,96.38-100,106.11v10.56c0,13.81-11.19,25-25,25s-25-11.19-25-25v-10.56c-54.35-9.73-100-50.56-100-106.11,0-13.81,11.19-25,25-25s25,11.19,25,25c0,28.14,29.12,58.33,75,58.33s75-30.19,75-58.33-29.12-58.33-75-58.33c-64.57,0-125-44.43-125-108.33,0-55.55,45.65-96.38,100-106.11v-10.56c0-13.81,11.19-25,25-25Z"/>
  </g>
</svg>