<?xml version="1.0" encoding="UTF-8"?>
<svg id="Layer_1" xmlns="http://www.w3.org/2000/svg" version="1.1" viewBox="0 0 800 800">
  <!-- Generator: Adobe Illustrator 30.0.0, SVG Export Plug-In . SVG Version: 2.1.1 Build 123)  -->
  <defs>
    <style>
      .st0 {
        fill: #0d2c4b;
        fill-rule: evenodd;
        stroke: #fff;
        stroke-miterlimit: 133.33;
        stroke-width: 13px;
      }
    </style>
  </defs>
  <path class="st0" d="M400,109.12c-160.65,0-290.88,130.23-290.88,290.88s130.23,290.88,290.88,290.88,290.88-130.23,290.88-290.88S560.65,109.12,400,109.12ZM26.01,400C26.01,193.45,193.45,26.01,400,26.01s373.99,167.44,373.99,373.99-167.44,373.99-373.99,373.99S26.01,606.55,26.01,400ZM376.02,275.34c-21.18,0-38.36,17.17-38.36,38.35h0v16c0,22.95-18.61,41.55-41.55,41.55s-41.55-18.61-41.55-41.55v-16c0-67.08,54.38-121.46,121.46-121.46h23.98c80.66,0,145.44,66.11,145.44,146.11,0,38.52-19.95,74.8-53.02,95.16l-70.64,43.47c-19.55,12.03-45.15,5.92-57.18-13.63-12.03-19.55-5.92-45.15,13.63-57.18h0l70.64-43.47c8.38-5.26,13.47-14.46,13.46-24.35,0-34.78-28.26-63-62.33-63h-23.98,0ZM400.42,607.77c22.95,0,41.55-18.61,41.55-41.55s-18.61-41.55-41.55-41.55h-.42c-22.95,0-41.55,18.61-41.55,41.55s18.61,41.55,41.55,41.55h.42Z"/>
</svg>