<?xml version="1.0" encoding="UTF-8"?>
<svg id="a1d0d4f7-4fce-4383-abe2-cf50798f66e5" xmlns="http://www.w3.org/2000/svg" version="1.1" viewBox="0 0 800 800">
  <!-- Generator: Adobe Illustrator 30.0.0, SVG Export Plug-In . SVG Version: 2.1.1 Build 123)  -->
  <defs>
    <style>
      .st0 {
        fill: #fff;
      }
    </style>
  </defs>
  <g id="SVGRepo_iconCarrier">
    <path class="st0" d="M197.29,404.25h100.83c3.68,0,6.67-4.92,6.67-10.98s-2.99-10.98-6.67-10.98h-100.83c-3.68,0-6.67,4.92-6.67,10.98s2.99,10.98,6.67,10.98Z"/>
    <path class="st0" d="M247.75,450.39c6.56,0,11.9-2.99,11.9-6.67v-100.92c0-3.68-5.34-6.67-11.9-6.67s-11.9,2.99-11.9,6.67v100.92c0,3.68,5.34,6.67,11.9,6.67Z"/>
    <g>
      <path class="st0" d="M499.48,375.65l-.45-.03-.45.03c-4.76.31-9.17,2.42-12.43,5.93h0c-3.37,3.66-5.11,8.4-4.92,13.37.38,9.52,7.84,17.18,17.34,17.81l.45.03.45-.03c9.96-.66,17.75-9.31,17.35-19.3-.38-9.52-7.84-17.18-17.34-17.81Z"/>
      <path class="st0" d="M544.02,331.13l-.45-.03-.45.03c-9.96.66-17.75,9.31-17.35,19.3h0c.38,9.52,7.84,17.18,17.34,17.81l.45.03.45-.03c9.96-.66,17.75-9.31,17.35-19.3-.38-9.52-7.84-17.18-17.34-17.81Z"/>
      <path class="st0" d="M542.14,418.3l-.46-.03-.46.03c-9.91.67-17.66,9.24-17.35,19.15v.16c.39,9.52,7.84,17.18,17.35,17.81l.45.03.45-.03c9.96-.66,17.75-9.32,17.35-19.31-.38-9.52-7.84-17.18-17.34-17.81Z"/>
      <path class="st0" d="M604,391.66c-.38-9.52-7.84-17.18-17.34-17.81l-.45-.03-.45.03c-4.76.31-9.17,2.42-12.43,5.93h0c-3.37,3.66-5.11,8.4-4.92,13.37.38,9.52,7.84,17.18,17.35,17.81l.45.03.45-.03c4.76-.31,9.17-2.42,12.43-5.94,3.37-3.65,5.11-8.39,4.92-13.36Z"/>
    </g>
    <path class="st0" d="M572.38,705.14c10.4,39.86,46.44,67.71,87.63,67.71h.57c49.46,0,89.9-40.25,90.13-89.72v-285.2c.6-58.32-21.24-113.7-61.51-155.91-40.23-42.17-94.45-66.59-152.68-68.78-28.04-.58-55.52,4.26-81.67,14.36l-.44.17c-12.37,4.51-25.32,6.7-38.46,6.49h-31.96c-13.34.16-26.43-2.1-38.92-6.7l-.26-.1c-24.68-9.46-50.6-14.26-77.02-14.26h-.73c-58.32.22-113.09,23.15-154.19,64.56-40.97,41.28-63.48,96.02-63.39,154.16l1.23,22.46-.11,1.41c-.4,5.28-1.17,16.96-1.17,23.03v244.24c.21,19.57,6.91,38.87,18.86,54.37,14.79,19.19,36.17,31.46,60.19,34.56,24.02,3.11,47.82-3.33,67.01-18.12l.17-.13c15.32-11.57,26.49-28.16,31.46-46.71l.43-1.39,39.78-116.3,19.38,5.25c74.32,20.14,153.02,20.65,227.6,1.49l19.21-4.93,38.86,113.99ZM356.39,592.88c-46.01-5.4-81.13-16.02-89.38-18.66l-.34-.06-1.55-.55c-1.8-.59-3.66-.46-5.38.38-1.74.85-2.99,2.27-3.63,4.11l-42.45,124.38c-4.29,16-13.9,30.32-27.1,40.36-12.96,9.95-28.51,15.41-44.93,15.74h-1.55c-20.07.01-39.04-7.74-53.43-21.82-14.41-14.1-22.56-32.94-22.96-53.06v-.43s0-244.39,0-244.39c0-6.48.74-16.98,1.19-22.79.03-.72.03-1.44,0-2.15l-.88-15.55-.39-.13-.02-7.27c.08-54.34,21.31-105.43,59.76-143.85,38.45-38.41,89.56-59.57,143.91-59.61.2,0,.4,0,.6,0,24.6,0,48.77,4.47,71.81,13.3,14.08,5.27,28.92,7.88,44,7.73h32.54s.06,0,.06,0c14.92.17,29.67-2.4,43.71-7.64,24.55-9.5,50.29-14,76.57-13.36h.49c54.46,2.29,105.07,25.36,142.52,64.97,37.41,39.59,57.58,91.37,56.81,145.81v285c-.37,41.51-34.37,75.22-75.8,75.23h-.45c-35.34-.21-65.86-24.18-74.43-58.37l-41.77-122.14c-.99-2.88-3.71-4.83-6.78-4.84-.81,0-1.67.18-2.54.54-50.12,20.68-110.08,27.12-178.2,19.12Z"/>
    <path class="st0" d="M404.99,183.67l-9.99.42c-.35-8.33,1.45-16.7,5.21-24.22,6.29-14.42,17.59-26.02,31.84-32.69l1.67-.7c32.1-11.83,67.15-11.09,98.73,2.09,29.19,11.7,60.94,14.85,91.86,9.11,26.24-6.77,45.06-29.41,46.91-56.47.1-4-2.86-7.42-6.82-7.92-.04,0-.07,0-.11,0-3.68,0-6.9,2.83-7.38,6.49-.44,13.69-6.04,25.32-16.22,33.66-21.47,17.59-54.75,13.7-68.06,11.21-8.7-1.62-16.4-5.63-23.86-9.51-5.2-2.71-10.11-5.26-14.61-6.56-20.56-5.92-40.3-5.65-62.12-4.75h-.96c-29.5-.14-57.13,12.86-75.76,35.7-15.92,20.97-18.68,48.67-7.21,72.38,1.64,3.03,3.23,3.34,4.72,3.4,3.28.14,7.12-1.75,8.74-4.31.47-.75,1.18-1.86-.43-4.94l8.86-4.64s0,0,0,0l-5.01-17.75Z"/>
  </g>
</svg>