<?xml version="1.0" encoding="UTF-8"?>
<svg id="Layer_1" xmlns="http://www.w3.org/2000/svg" version="1.1" viewBox="0 0 800 800">
  <!-- Generator: Adobe Illustrator 30.0.0, SVG Export Plug-In . SVG Version: 2.1.1 Build 123)  -->
  <defs>
    <style>
      .st0 {
        fill: none;
        stroke: #0d2c4b;
        stroke-linecap: round;
        stroke-linejoin: round;
        stroke-width: 66.67px;
      }
    </style>
  </defs>
  <path class="st0" d="M700,400c0,165.69-134.31,300-300,300M700,400c0-165.69-134.31-300-300-300M700,400c0,55.23-134.31,100-300,100s-300-44.77-300-100M700,400c0-55.23-134.31-100-300-100s-300,44.77-300,100M400,700c-165.69,0-300-134.31-300-300M400,700c-55.23,0-100-134.31-100-300s44.77-300,100-300M400,700c55.23,0,100-134.31,100-300s-44.77-300-100-300M100,400c0-165.69,134.31-300,300-300"/>
</svg>