<?xml version="1.0" encoding="UTF-8"?>
<svg id="Layer_1" xmlns="http://www.w3.org/2000/svg" version="1.1" viewBox="0 0 800 800">
  <!-- Generator: Adobe Illustrator 30.0.0, SVG Export Plug-In . SVG Version: 2.1.1 Build 123)  -->
  <defs>
    <style>
      .st0 {
        fill: #0d2c4b;
      }
    </style>
  </defs>
  <path class="st0" d="M300,500c-18.41,0-33.33,14.92-33.33,33.33s14.92,33.33,33.33,33.33,33.33-14.92,33.33-33.33-14.92-33.33-33.33-33.33ZM66.67,466.67c-18.41,0-33.33,14.92-33.33,33.33v66.67c0,18.41,14.92,33.33,33.33,33.33s33.33-14.92,33.33-33.33v-66.67c0-18.41-14.92-33.33-33.33-33.33ZM733.33,466.67c-18.41,0-33.33,14.92-33.33,33.33v66.67c0,18.41,14.92,33.33,33.33,33.33s33.33-14.92,33.33-33.33v-66.67c0-18.41-14.92-33.33-33.33-33.33ZM566.67,233.33h-133.33v-42.67c20.5-11.84,33.19-33.66,33.33-57.33,0-36.82-29.85-66.67-66.67-66.67s-66.67,29.85-66.67,66.67c.14,23.67,12.83,45.5,33.33,57.33v42.67h-133.33c-55.23,0-100,44.77-100,100v300c0,55.23,44.77,100,100,100h333.33c55.23,0,100-44.77,100-100v-300c0-55.23-44.77-100-100-100ZM457.33,300l-16.67,66.67h-81.33l-16.67-66.67h114.67ZM600,633.33c0,18.41-14.92,33.33-33.33,33.33H233.33c-18.41,0-33.33-14.92-33.33-33.33v-300c0-18.41,14.92-33.33,33.33-33.33h40.67l26,108c3.76,15.24,17.64,25.79,33.33,25.33h133.33c15.69.46,29.57-10.09,33.33-25.33l26-108h40.67c18.41,0,33.33,14.92,33.33,33.33v300ZM500,500c-18.41,0-33.33,14.92-33.33,33.33s14.92,33.33,33.33,33.33,33.33-14.92,33.33-33.33-14.92-33.33-33.33-33.33Z"/>
</svg>