<?xml version="1.0" encoding="UTF-8"?>
<svg id="Layer_1" xmlns="http://www.w3.org/2000/svg" version="1.1" viewBox="0 0 800 800">
  <!-- Generator: Adobe Illustrator 30.0.0, SVG Export Plug-In . SVG Version: 2.1.1 Build 123)  -->
  <defs>
    <style>
      .st0 {
        fill: #0d2c4b;
        fill-rule: evenodd;
      }
    </style>
  </defs>
  <path class="st0" d="M687.5,25c-62.13-.02-112.52,50.33-112.54,112.46,0,23.01,7.04,45.46,20.19,64.34l-46.65,46.7c-2.1,2.11-3.95,4.46-5.5,7-9.5-3.55-19.8-5.5-30.5-5.5h-125c-48.32,0-87.5,39.18-87.5,87.5h0v25h-81.4c-20.71-58.58-84.99-89.28-143.57-68.57C16.46,314.64-14.24,378.92,6.47,437.5s84.99,89.28,143.57,68.57c32.04-11.33,57.24-36.53,68.57-68.57h81.4v25c0,48.3,39.2,87.5,87.5,87.5h125c10.7,0,21-1.95,30.5-5.5,1.5,2.5,3.35,4.85,5.5,7l46.65,46.7c-35.5,50.99-22.95,121.1,28.04,156.61,50.99,35.5,121.1,22.95,156.61-28.04s22.95-121.1-28.04-156.61c-27.56-19.19-62.26-25.07-94.61-16.01l-55.65-55.65c-2.11-2.1-4.46-3.95-7-5.5,3.55-9.5,5.5-19.8,5.5-30.5v-125c0-10.7-1.95-21-5.5-30.5,2.54-1.55,4.89-3.4,7-5.5l55.65-55.65c59.9,16.71,122-18.31,138.71-78.21,2.74-9.81,4.13-19.95,4.14-30.14,0-62.13-50.37-112.5-112.5-112.5ZM650,137.5c0-20.71,16.79-37.5,37.5-37.5s37.5,16.79,37.5,37.5-16.79,37.5-37.5,37.5-37.5-16.79-37.5-37.5ZM387.5,325c-6.9,0-12.5,5.6-12.5,12.5v125c0,6.9,5.6,12.5,12.5,12.5h125c6.9,0,12.5-5.6,12.5-12.5v-125c0-6.9-5.6-12.5-12.5-12.5h-125ZM687.5,625c-20.71,0-37.5,16.79-37.5,37.5s16.79,37.5,37.5,37.5,37.5-16.79,37.5-37.5-16.79-37.5-37.5-37.5h0ZM75,400c0-20.71,16.79-37.5,37.5-37.5s37.5,16.79,37.5,37.5-16.79,37.5-37.5,37.5-37.5-16.79-37.5-37.5Z"/>
</svg>