<?xml version="1.0" encoding="UTF-8"?>
<svg id="svg5" xmlns="http://www.w3.org/2000/svg" xmlns:svg="http://www.w3.org/2000/svg" version="1.1" viewBox="0 0 800 800">
  <!-- Generator: Adobe Illustrator 30.0.0, SVG Export Plug-In . SVG Version: 2.1.1 Build 123)  -->
  <defs>
    <style>
      .st0 {
        fill: #0d2c4b;
        fill-rule: evenodd;
        stroke: #0d2c4b;
        stroke-miterlimit: 10;
        stroke-width: 13px;
      }
    </style>
  </defs>
  <g id="layer1">
    <path id="rect5129" class="st0" d="M202.34,393.99c-6.39,1.73-11.84,5.93-15.14,11.67l-133.84,231.84c-6.91,11.96-2.81,27.25,9.14,34.16,5.73,3.31,12.54,4.21,18.93,2.51l78.32-21,20.95,78.27c3.57,13.34,17.27,21.26,30.61,17.7,6.41-1.71,11.87-5.9,15.19-11.64l122.71-212.5c6.89-11.95,2.81-27.22-9.13-34.13-11.95-6.89-27.22-2.81-34.13,9.13l-92.53,160.25-11.82-44.14c-3.55-13.34-17.25-21.28-30.59-17.73h-.02l-44.19,11.82,103.66-179.54c6.89-11.95,2.81-27.22-9.13-34.13-5.74-3.34-12.58-4.25-18.99-2.54h0Z"/>
    <path id="path5307" class="st0" d="M578.66,396.53c-11.94,6.91-16.02,22.18-9.13,34.13l103.66,179.54-44.19-11.82c-13.34-3.56-27.04,4.36-30.61,17.7v.02l-11.82,44.14-92.53-160.25c-6.91-11.94-22.18-16.02-34.13-9.13-11.94,6.91-16.02,22.18-9.13,34.13l122.71,212.5c6.91,11.95,22.2,16.04,34.16,9.13,5.74-3.32,9.93-8.78,11.64-15.19l20.95-78.27,78.32,21c13.34,3.55,27.04-4.39,30.59-17.74,1.7-6.4.8-13.2-2.51-18.94l-133.84-231.84c-6.91-11.94-22.18-16.02-34.13-9.13h0v.02Z"/>
    <path id="path5328" class="st0" d="M400,50c-137.77,0-250,112.22-250,250s112.23,250,250,250,250-112.22,250-250-112.23-250-250-250ZM400,100c110.75,0,200,89.25,200,200s-89.25,200-200,200-200-89.25-200-200,89.25-200,200-200Z"/>
    <path id="path5315" class="st0" d="M320.41,436.63c6.11,1.59,12.59.82,18.16-2.15l61.43-32.89,61.43,32.89c12.18,6.53,27.36,1.98,33.91-10.17,2.68-4.97,3.59-10.71,2.58-16.26l-12.38-68.45,50.33-48.12c9.99-9.54,10.34-25.34.77-35.3-3.91-4.07-9.09-6.71-14.69-7.47l-69.08-9.4-30.33-62.62c-6.02-12.42-20.99-17.62-33.44-11.62-5.08,2.45-9.19,6.54-11.65,11.62l-30.33,62.62-69.08,9.4c-13.7,1.87-23.28,14.46-21.41,28.13.77,5.59,3.41,10.75,7.49,14.65l50.33,48.12-12.38,68.45c-2.32,12.84,5.67,25.3,18.33,28.59v-.02ZM439.45,366.03l-27.62-14.78c-7.39-3.95-16.27-3.95-23.65,0l-27.62,14.78,5.57-30.77c1.49-8.23-1.25-16.66-7.31-22.45l-22.61-21.61,31.03-4.23c8.3-1.14,15.49-6.35,19.13-13.88l13.64-28.17,13.64,28.17c3.65,7.53,10.83,12.74,19.13,13.88l31.03,4.23-22.61,21.61c-6.05,5.79-8.79,14.22-7.31,22.45l5.57,30.77h-.01Z"/>
  </g>
</svg>