<?xml version="1.0" encoding="UTF-8"?>
<svg id="Layer_1" xmlns="http://www.w3.org/2000/svg" version="1.1" viewBox="0 0 800 800">
  <!-- Generator: Adobe Illustrator 30.0.0, SVG Export Plug-In . SVG Version: 2.1.1 Build 123)  -->
  <defs>
    <style>
      .st0 {
        fill: #fff;
      }
    </style>
  </defs>
  <path class="st0" d="M416.67,321.5c-89.23,0-161.83,72.6-161.83,161.83s72.6,161.83,161.83,161.83h166.67c89.23,0,161.83-72.6,161.83-161.83,0-35.56-11.31-69.3-32.7-97.57-20.71-27.37-50.13-47.81-82.83-57.56-1.19-.35-2.64-.54-4.42.78-2.29,1.71-3.71,4.86-3.71,8.22v1.72c0,8.4,9.13,14.4,14.52,16.62,51.93,21.43,85.48,71.58,85.48,127.77,0,76.19-61.98,138.17-138.17,138.17h-166.67c-76.19,0-138.17-61.98-138.17-138.17s61.98-138.17,138.17-138.17h16.67c6.52,0,11.83-5.31,11.83-11.83v-.48c-.25-6.27-5.53-11.34-11.82-11.34h-16.68Z"/>
  <path class="st0" d="M383.33,478.49c89.23,0,161.83-72.6,161.83-161.83s-72.6-161.83-161.83-161.83h-166.7c-43.15,0-83.76,16.85-114.36,47.45-30.6,30.6-47.45,71.22-47.45,114.37,0,35.56,11.31,69.3,32.7,97.56,20.71,27.37,50.13,47.81,82.83,57.56,1.19.36,2.65.54,4.42-.77,2.29-1.71,3.72-4.87,3.72-8.23v-1.72c0-8.39-9.13-14.4-14.52-16.63-51.93-21.44-85.48-71.59-85.48-127.76,0-76.19,61.98-138.17,138.17-138.17h166.67c76.19,0,138.17,61.98,138.17,138.17s-61.98,138.17-138.17,138.17h-16.67c-6.52,0-11.83,5.31-11.83,11.83s5.31,11.83,11.83,11.83h16.67Z"/>
</svg>